<svg xmlns="http://www.w3.org/2000/svg" width="163" height="35"><path d="M-.15.702v33.6H13.38a15.72 15.72 0 0 0 11.72-4.824 16.458 16.458 0 0 0 4.712-11.976 16.458 16.458 0 0 0-4.712-11.976A15.723 15.723 0 0 0 13.381.702H-.15zM7.582 26.9V8.09h5.8a8.646 8.646 0 0 1 6.5 2.568 9.407 9.407 0 0 1 2.489 6.84 9.406 9.406 0 0 1-2.489 6.84 8.642 8.642 0 0 1-6.5 2.568h-5.8zm34.8-5.952h12.082v-7.3H42.378V8.09h13.29V.702H34.645v33.6H55.9V26.9H42.378v-5.952zm36.343 13.344l11.02-33.6h-8.458l-7.49 24.72-7.49-24.72h-8.457l11.02 33.6h9.86zm14.4 0h7.733V.702h-7.733v33.6zm38.615-1.416a15.506 15.506 0 0 0 6.041-5.688l-6.67-3.84a7.482 7.482 0 0 1-3.165 3.024 9.87 9.87 0 0 1-4.664 1.1 9.595 9.595 0 0 1-7.177-2.736 9.909 9.909 0 0 1-2.682-7.248 9.909 9.909 0 0 1 2.682-7.248 9.595 9.595 0 0 1 7.177-2.736 9.897 9.897 0 0 1 4.639 1.08 7.592 7.592 0 0 1 3.19 3.048l6.67-3.84a15.873 15.873 0 0 0-6.09-5.688 17.42 17.42 0 0 0-8.409-2.088c-9.78-.272-17.797 7.69-17.59 17.472-.208 9.78 7.81 17.747 17.588 17.476a17.52 17.52 0 0 0 8.458-2.088zm17.88-11.928h12.082v-7.3h-12.085V8.09h13.3V.702h-21.023v33.6h21.265V26.9h-13.532v-5.952z" fill-rule="evenodd"/></svg>